mtllib knight.mtl
o Plane
v -1.000000 0.400000 -0.213808 -1:-1.0 -1:-1.0 -1:-1.0 -1:-1.0
v -0.213808 0.400000 -1.000000 -1:-1.0 -1:-1.0 -1:-1.0 -1:-1.0
v -0.213808 0.400000 1.000000 -1:-1.0 -1:-1.0 -1:-1.0 -1:-1.0
v -1.000000 0.400000 0.213808 -1:-1.0 -1:-1.0 -1:-1.0 -1:-1.0
v 0.213808 0.400000 -1.000000 -1:-1.0 -1:-1.0 -1:-1.0 -1:-1.0
v 1.000000 0.400000 -0.213808 -1:-1.0 -1:-1.0 -1:-1.0 -1:-1.0
v 1.000000 0.400000 0.213808 -1:-1.0 -1:-1.0 -1:-1.0 -1:-1.0
v 0.213808 0.400000 1.000000 -1:-1.0 -1:-1.0 -1:-1.0 -1:-1.0
v -0.576362 1.105943 -0.889413 -1:-1.0 -1:-1.0 -1:-1.0 -1:-1.0
v 0.056430 1.469199 -0.887526 -1:-1.0 -1:-1.0 -1:-1.0 -1:-1.0
v -0.887526 1.469199 -0.056430 -1:-1.0 -1:-1.0 -1:-1.0 -1:-1.0
v -0.889413 1.105943 -0.576362 -1:-1.0 -1:-1.0 -1:-1.0 -1:-1.0
v -0.889413 1.105943 0.576362 -1:-1.0 -1:-1.0 -1:-1.0 -1:-1.0
v -0.056430 1.469199 0.887526 -1:-1.0 -1:-1.0 -1:-1.0 -1:-1.0
v -0.576362 1.105943 0.889413 -1:-1.0 -1:-1.0 -1:-1.0 -1:-1.0
v 0.889413 1.105943 -0.576362 -1:-1.0 -1:-1.0 -1:-1.0 -1:-1.0
v 0.887526 1.469199 -0.056430 -1:-1.0 -1:-1.0 -1:-1.0 -1:-1.0
v 0.576362 1.105943 -0.889413 -1:-1.0 -1:-1.0 -1:-1.0 -1:-1.0
v 0.576362 1.105943 0.889413 -1:-1.0 -1:-1.0 -1:-1.0 -1:-1.0
v 0.889413 1.105943 0.576362 -1:-1.0 -1:-1.0 -1:-1.0 -1:-1.0
v 0.685240 1.833902 0.110503 -1:-1.0 -1:-1.0 -1:-1.0 -1:-1.0
v 0.099908 1.833976 0.687309 -1:-1.0 -1:-1.0 -1:-1.0 -1:-1.0
v 0.106066 1.833333 -0.681802 -1:-1.0 -1:-1.0 -1:-1.0 -1:-1.0
v -0.685240 1.833902 0.110502 -1:-1.0 -1:-1.0 -1:-1.0 -1:-1.0
v 0.680309 2.781561 0.105721 -1:-1.0 -1:-1.0 -1:-1.0 -1:-1.0
v 0.105402 2.280451 0.716411 -1:-1.0 -1:-1.0 -1:-1.0 -1:-1.0
v -0.680309 2.781561 0.105721 -1:-1.0 -1:-1.0 -1:-1.0 -1:-1.0
v 0.106066 2.933333 -0.681802 -1:-1.0 -1:-1.0 -1:-1.0 -1:-1.0
v -0.625462 3.633333 -0.000000 -1:-1.0 -1:-1.0 -1:-1.0 -1:-1.0
v 0.000000 4.415571 -0.650655 -1:-1.0 -1:-1.0 -1:-1.0 -1:-1.0
v 0.625462 3.633333 0.000000 -1:-1.0 -1:-1.0 -1:-1.0 -1:-1.0
v 0.008351 3.699237 0.522137 -1:-1.0 -1:-1.0 -1:-1.0 -1:-1.0
v -0.625462 4.316173 0.500300 -1:-1.0 -1:-1.0 -1:-1.0 -1:-1.0
v 0.000000 5.126159 -0.244354 -1:-1.0 -1:-1.0 -1:-1.0 -1:-1.0
v 0.625462 4.316173 0.500300 -1:-1.0 -1:-1.0 -1:-1.0 -1:-1.0
v 0.008351 4.122783 1.596222 -1:-1.0 -1:-1.0 -1:-1.0 -1:-1.0
v -0.625462 4.629049 0.603176 -1:-1.0 -1:-1.0 -1:-1.0 -1:-1.0
v 0.000000 5.254141 0.592645 -1:-1.0 -1:-1.0 -1:-1.0 -1:-1.0
v 0.625462 4.629049 0.603176 -1:-1.0 -1:-1.0 -1:-1.0 -1:-1.0
v 0.008351 4.316593 1.247608 -1:-1.0 -1:-1.0 -1:-1.0 -1:-1.0
v -0.425462 4.746919 0.702957 -1:-1.0 -1:-1.0 -1:-1.0 -1:-1.0
v 0.009176 4.510226 1.715882 -1:-1.0 -1:-1.0 -1:-1.0 -1:-1.0
v 0.425462 4.746919 0.702957 -1:-1.0 -1:-1.0 -1:-1.0 -1:-1.0
v 0.000000 5.273440 0.177652 -1:-1.0 -1:-1.0 -1:-1.0 -1:-1.0
v 0.000000 4.801301 -0.538449 -1:-1.0 -1:-1.0 -1:-1.0 -1:-1.0
v 0.004588 4.915306 1.446681 -1:-1.0 -1:-1.0 -1:-1.0 -1:-1.0
v -0.010223 3.994118 1.442944 -1:-1.0 -1:-1.0 -1:-1.0 -1:-1.0
v -0.000936 3.867703 1.254012 -1:-1.0 -1:-1.0 -1:-1.0 -1:-1.0
v 0.003708 3.863694 0.739034 -1:-1.0 -1:-1.0 -1:-1.0 -1:-1.0
v 0.004176 3.071502 0.595750 -1:-1.0 -1:-1.0 -1:-1.0 -1:-1.0
v 0.006263 3.289338 0.513507 -1:-1.0 -1:-1.0 -1:-1.0 -1:-1.0
v 0.002088 2.626044 0.793239 -1:-1.0 -1:-1.0 -1:-1.0 -1:-1.0
v 0.007307 3.494554 0.486780 -1:-1.0 -1:-1.0 -1:-1.0 -1:-1.0
v 0.681802 2.933333 -0.106066 -1:-1.0 -1:-1.0 -1:-1.0 -1:-1.0
v -0.105402 2.280451 0.716411 -1:-1.0 -1:-1.0 -1:-1.0 -1:-1.0
v 0.681802 1.833333 -0.106066 -1:-1.0 -1:-1.0 -1:-1.0 -1:-1.0
v -0.099908 1.833976 0.687309 -1:-1.0 -1:-1.0 -1:-1.0 -1:-1.0
v -0.000000 2.390704 0.898899 -1:-1.0 -1:-1.0 -1:-1.0 -1:-1.0
v -0.681802 2.933333 -0.106066 -1:-1.0 -1:-1.0 -1:-1.0 -1:-1.0
v -0.062111 1.526024 0.840844 -1:-1.0 -1:-1.0 -1:-1.0 -1:-1.0
v -0.681802 1.833333 -0.106066 -1:-1.0 -1:-1.0 -1:-1.0 -1:-1.0
v -0.106066 2.933333 -0.681802 -1:-1.0 -1:-1.0 -1:-1.0 -1:-1.0
v 0.858579 3.133333 0.000000 -1:-1.0 -1:-1.0 -1:-1.0 -1:-1.0
v -0.106066 1.833333 -0.681802 -1:-1.0 -1:-1.0 -1:-1.0 -1:-1.0
v 0.840844 1.526024 -0.062111 -1:-1.0 -1:-1.0 -1:-1.0 -1:-1.0
v -0.858579 3.133333 -0.000000 -1:-1.0 -1:-1.0 -1:-1.0 -1:-1.0
v 0.000000 3.133333 -0.858579 -1:-1.0 -1:-1.0 -1:-1.0 -1:-1.0
v -0.840844 1.526024 -0.062111 -1:-1.0 -1:-1.0 -1:-1.0 -1:-1.0
v 0.062111 1.526024 -0.840844 -1:-1.0 -1:-1.0 -1:-1.0 -1:-1.0
v 0.887526 1.469199 0.056430 -1:-1.0 -1:-1.0 -1:-1.0 -1:-1.0
v 1.000000 0.859416 -0.213808 -1:-1.0 -1:-1.0 -1:-1.0 -1:-1.0
v 0.213808 0.859416 -1.000000 -1:-1.0 -1:-1.0 -1:-1.0 -1:-1.0
v -0.056430 1.469199 -0.887526 -1:-1.0 -1:-1.0 -1:-1.0 -1:-1.0
v -0.062111 1.526024 -0.840844 -1:-1.0 -1:-1.0 -1:-1.0 -1:-1.0
v 0.840844 1.526024 0.062111 -1:-1.0 -1:-1.0 -1:-1.0 -1:-1.0
v -1.000000 0.859416 -0.213808 -1:-1.0 -1:-1.0 -1:-1.0 -1:-1.0
v -0.887526 1.469199 0.056430 -1:-1.0 -1:-1.0 -1:-1.0 -1:-1.0
v 0.000000 1.010361 -1.000000 -1:-1.0 -1:-1.0 -1:-1.0 -1:-1.0
v -0.213808 0.859416 -1.000000 -1:-1.0 -1:-1.0 -1:-1.0 -1:-1.0
v -0.840844 1.526024 0.062111 -1:-1.0 -1:-1.0 -1:-1.0 -1:-1.0
v 0.000000 1.633333 -0.858579 -1:-1.0 -1:-1.0 -1:-1.0 -1:-1.0
v -0.213808 0.859416 1.000000 -1:-1.0 -1:-1.0 -1:-1.0 -1:-1.0
v 0.056430 1.469199 0.887526 -1:-1.0 -1:-1.0 -1:-1.0 -1:-1.0
v -1.000000 0.859416 0.213808 -1:-1.0 -1:-1.0 -1:-1.0 -1:-1.0
v -1.000000 1.010361 -0.000000 -1:-1.0 -1:-1.0 -1:-1.0 -1:-1.0
v 0.062111 1.526024 0.840844 -1:-1.0 -1:-1.0 -1:-1.0 -1:-1.0
v -0.858579 1.633333 -0.000000 -1:-1.0 -1:-1.0 -1:-1.0 -1:-1.0
v 0.213808 0.859416 1.000000 -1:-1.0 -1:-1.0 -1:-1.0 -1:-1.0
v 1.000000 0.859416 0.213808 -1:-1.0 -1:-1.0 -1:-1.0 -1:-1.0
v -0.000000 1.010361 1.000000 -1:-1.0 -1:-1.0 -1:-1.0 -1:-1.0
v 1.000000 1.010361 0.000000 -1:-1.0 -1:-1.0 -1:-1.0 -1:-1.0
v 0.858579 1.633333 0.000000 -1:-1.0 -1:-1.0 -1:-1.0 -1:-1.0
v -0.000000 1.633333 0.858579 -1:-1.0 -1:-1.0 -1:-1.0 -1:-1.0
v 1.000000 0.000000 -0.613808 -1:-1.0 -1:-1.0 -1:-1.0 -1:-1.0
v 1.000000 0.000000 0.613808 -1:-1.0 -1:-1.0 -1:-1.0 -1:-1.0
v 1.000000 1.500000 0.000000 -1:-1.0 -1:-1.0 -1:-1.0 -1:-1.0
v 1.000000 1.066660 -0.613808 -1:-1.0 -1:-1.0 -1:-1.0 -1:-1.0
v 1.000000 1.066660 0.613808 -1:-1.0 -1:-1.0 -1:-1.0 -1:-1.0
v 0.613808 0.000000 1.000000 -1:-1.0 -1:-1.0 -1:-1.0 -1:-1.0
v -0.613808 0.000000 1.000000 -1:-1.0 -1:-1.0 -1:-1.0 -1:-1.0
v -0.613808 1.066660 1.000000 -1:-1.0 -1:-1.0 -1:-1.0 -1:-1.0
v -0.000000 1.500000 1.000000 -1:-1.0 -1:-1.0 -1:-1.0 -1:-1.0
v 0.613808 1.066660 1.000000 -1:-1.0 -1:-1.0 -1:-1.0 -1:-1.0
v -1.000000 0.000000 0.613808 -1:-1.0 -1:-1.0 -1:-1.0 -1:-1.0
v -1.000000 0.000000 -0.613808 -1:-1.0 -1:-1.0 -1:-1.0 -1:-1.0
v -1.000000 1.066660 -0.613808 -1:-1.0 -1:-1.0 -1:-1.0 -1:-1.0
v -1.000000 1.500000 -0.000000 -1:-1.0 -1:-1.0 -1:-1.0 -1:-1.0
v -1.000000 1.066660 0.613808 -1:-1.0 -1:-1.0 -1:-1.0 -1:-1.0
v 0.613808 0.000000 -1.000000 -1:-1.0 -1:-1.0 -1:-1.0 -1:-1.0
v -0.613808 0.000000 -1.000000 -1:-1.0 -1:-1.0 -1:-1.0 -1:-1.0
v 0.000000 1.500000 -1.000000 -1:-1.0 -1:-1.0 -1:-1.0 -1:-1.0
v -0.613808 1.066660 -1.000000 -1:-1.0 -1:-1.0 -1:-1.0 -1:-1.0
v 0.613808 1.066660 -1.000000 -1:-1.0 -1:-1.0 -1:-1.0 -1:-1.0
v 0.950000 0.200000 -0.413808 -1:-1.0 -1:-1.0 -1:-1.0 -1:-1.0
v 0.950000 0.200000 0.413808 -1:-1.0 -1:-1.0 -1:-1.0 -1:-1.0
v 0.950000 1.255180 0.000000 -1:-1.0 -1:-1.0 -1:-1.0 -1:-1.0
v 0.950000 0.963038 -0.413808 -1:-1.0 -1:-1.0 -1:-1.0 -1:-1.0
v 0.950000 0.963038 0.413808 -1:-1.0 -1:-1.0 -1:-1.0 -1:-1.0
v 0.413808 0.200000 -0.950000 -1:-1.0 -1:-1.0 -1:-1.0 -1:-1.0
v -0.413808 0.200000 -0.950000 -1:-1.0 -1:-1.0 -1:-1.0 -1:-1.0
v 0.000000 1.255180 -0.950000 -1:-1.0 -1:-1.0 -1:-1.0 -1:-1.0
v -0.413808 0.963038 -0.950000 -1:-1.0 -1:-1.0 -1:-1.0 -1:-1.0
v 0.413808 0.963038 -0.950000 -1:-1.0 -1:-1.0 -1:-1.0 -1:-1.0
v -0.950000 0.200000 0.413808 -1:-1.0 -1:-1.0 -1:-1.0 -1:-1.0
v -0.950000 0.200000 -0.413808 -1:-1.0 -1:-1.0 -1:-1.0 -1:-1.0
v -0.950000 0.963038 -0.413808 -1:-1.0 -1:-1.0 -1:-1.0 -1:-1.0
v -0.950000 1.255180 -0.000000 -1:-1.0 -1:-1.0 -1:-1.0 -1:-1.0
v -0.950000 0.963038 0.413808 -1:-1.0 -1:-1.0 -1:-1.0 -1:-1.0
v 0.413808 0.200000 0.950000 -1:-1.0 -1:-1.0 -1:-1.0 -1:-1.0
v -0.413808 0.200000 0.950000 -1:-1.0 -1:-1.0 -1:-1.0 -1:-1.0
v -0.413808 0.963038 0.950000 -1:-1.0 -1:-1.0 -1:-1.0 -1:-1.0
v -0.000000 1.255180 0.950000 -1:-1.0 -1:-1.0 -1:-1.0 -1:-1.0
v 0.413808 0.963038 0.950000 -1:-1.0 -1:-1.0 -1:-1.0 -1:-1.0
vn -0.707107 0.000000 0.707107
vn 0.707107 0.000000 0.707107
vn 0.000000 -1.000000 0.000000
vn -1.000000 0.000000 0.000000
vn 0.707107 0.000000 -0.707107
vn 0.000000 0.000000 1.000000
vn 0.000000 0.000000 -1.000000
vn 1.000000 0.000000 0.000000
vn -0.519200 0.678868 0.519200
vn 0.519200 0.678868 -0.519200
vn 0.519200 0.678868 0.519201
vn 0.548438 0.248452 0.798428
vn -0.707107 0.000000 -0.707107
vn 0.717830 -0.012434 0.696108
vn 0.655481 -0.619285 0.432239
vn -0.717830 -0.012433 0.696108
vn -0.519200 0.678868 -0.519201
vn -0.745582 0.172616 -0.643670
vn 0.745582 0.172616 -0.643670
vn -0.542041 0.252814 0.801422
vn -0.727772 0.299276 0.617076
vn 0.862344 0.276127 -0.424402
vn -0.656184 -0.616001 0.435850
vn -0.862344 0.276127 -0.424402
vn -0.846434 -0.280130 0.452854
vn -0.814062 0.525807 -0.246636
vn 0.736840 0.295020 0.608301
vn 0.814062 0.525807 -0.246636
vn -0.775228 0.520081 0.358521
vn 0.855171 -0.265282 0.445318
vn 0.776547 0.524186 0.349577
vn 0.791365 -0.219606 0.570539
vn 0.686098 0.230103 0.690161
vn 0.522982 0.002718 0.852339
vn 0.868022 -0.032533 0.495459
vn -0.791365 -0.219606 0.570539
vn -0.686098 0.230104 0.690161
vn -0.868022 -0.032533 0.495459
vn -0.522982 0.002718 0.852339
vn 0.685994 -0.242536 -0.685994
vn 0.685994 0.242536 -0.685994
vn 0.857493 0.000000 -0.514496
vn 0.514496 0.000000 -0.857493
vn -0.685994 -0.242536 -0.685994
vn -0.685994 0.242536 -0.685994
vn -0.857493 0.000000 -0.514496
vn -0.514496 0.000000 -0.857493
vn 0.079778 0.815676 -0.572982
vn 0.248446 0.936242 -0.248446
vn 0.572982 0.815676 -0.079778
vn 0.678686 0.280661 -0.678686
vn 0.389671 0.360136 -0.847619
vn 0.847619 0.360136 -0.389671
vn -0.079778 0.815676 -0.572982
vn -0.572982 0.815676 -0.079778
vn -0.248446 0.936242 -0.248446
vn -0.389671 0.360136 -0.847619
vn -0.678686 0.280661 -0.678686
vn -0.847619 0.360136 -0.389671
vn -0.572982 0.815676 0.079778
vn -0.248446 0.936242 0.248446
vn -0.079778 0.815676 0.572982
vn -0.678686 0.280661 0.678686
vn -0.389671 0.360136 0.847619
vn -0.847619 0.360136 0.389671
vn 0.248446 0.936242 0.248446
vn 0.572982 0.815676 0.079778
vn 0.079778 0.815676 0.572982
vn 0.678686 0.280661 0.678686
vn 0.389671 0.360136 0.847619
vn 0.847619 0.360136 0.389671
vn 0.970142 0.242536 0.000000
vn 0.970143 -0.198134 0.139880
vn 0.970143 0.000000 0.242536
vn 0.970143 0.000000 -0.242536
vn 0.970143 -0.198134 -0.139880
vn 0.000000 0.242536 0.970142
vn 0.139880 -0.198134 0.970143
vn 0.242536 0.000000 0.970143
vn -0.242536 0.000000 0.970143
vn -0.139880 -0.198134 0.970143
vn -0.970142 0.242536 0.000000
vn -0.970143 -0.198134 0.139880
vn -0.970143 0.000000 0.242536
vn -0.970143 -0.198134 -0.139880
vn -0.970143 0.000000 -0.242536
vn 0.000000 0.242536 -0.970142
vn 0.139880 -0.198134 -0.970143
vn 0.242536 0.000000 -0.970143
vn -0.242536 0.000000 -0.970143
vn -0.139880 -0.198134 -0.970143
vn 0.970142 -0.242536 0.000000
vn 0.970142 0.198134 -0.139880
vn 0.970143 0.000000 -0.242536
vn 0.970143 -0.000000 0.242536
vn 0.970142 0.198134 0.139880
vn 0.000000 -0.242536 -0.970142
vn -0.139880 0.198134 -0.970142
vn -0.242536 0.000000 -0.970143
vn 0.242536 -0.000000 -0.970143
vn 0.139880 0.198134 -0.970142
vn -0.970142 -0.242536 0.000000
vn -0.970142 0.198134 -0.139880
vn -0.970143 0.000000 -0.242536
vn -0.970142 0.198134 0.139880
vn -0.970143 0.000000 0.242536
vn 0.000000 -0.242536 0.970142
vn -0.139880 0.198134 0.970142
vn -0.242536 0.000000 0.970143
vn 0.242536 -0.000000 0.970143
vn 0.139880 0.198134 0.970142
f 108//1 104//1 100//1 101//1
f 95//2 98//2 103//2 99//2
f 105//3 110//3 109//3 94//3 95//3 99//3 100//3 104//3
f 1//4 4//4 84//4 85//4 76//4
f 97//5 94//5 109//5 113//5
f 3//6 8//6 88//6 90//6 82//6
f 5//7 2//7 79//7 78//7 72//7
f 7//8 6//8 71//8 91//8 89//8
f 14//9 60//9 80//9 77//9 13//9 15//9
f 10//10 69//10 65//10 17//10 16//10 18//10
f 70//11 75//11 86//11 83//11 19//11 20//11
f 58//12 63//12 31//12 32//12 53//12 51//12 50//12 52//12
f 105//13 106//13 112//13 110//13
f 22//14 21//14 25//14 26//14
f 32//15 31//15 35//15 36//15 47//15 48//15 49//15
f 64//13 61//13 59//13 62//13
f 24//16 57//16 55//16 27//16
f 56//5 23//5 28//5 54//5
f 11//17 68//17 74//17 73//17 9//17 12//17
f 67//18 66//18 29//18 30//18
f 63//19 67//19 30//19 31//19
f 66//20 58//20 52//20 50//20 51//20 53//20 32//20 29//20
f 33//21 36//21 40//21 37//21
f 31//22 30//22 45//22 34//22 35//22
f 29//23 32//23 49//23 48//23 47//23 36//23 33//23
f 30//24 29//24 33//24 34//24 45//24
f 37//25 40//25 42//25 41//25
f 34//26 33//26 37//26 38//26 44//26
f 36//27 35//27 39//27 40//27
f 35//28 34//28 44//28 38//28 39//28
f 38//29 37//29 41//29 42//29 46//29
f 40//30 39//30 43//30 42//30
f 39//31 38//31 46//31 42//31 43//31
f 26//32 25//32 63//32 58//32
f 21//33 22//33 93//33 92//33
f 25//34 21//34 92//34 63//34
f 22//35 26//35 58//35 93//35
f 27//36 55//36 58//36 66//36
f 57//37 24//37 87//37 93//37
f 55//38 57//38 93//38 58//38
f 24//39 27//39 66//39 87//39
f 54//40 28//40 67//40 63//40
f 23//41 56//41 92//41 81//41
f 28//42 23//42 81//42 67//42
f 56//43 54//43 63//43 92//43
f 62//44 59//44 66//44 67//44
f 61//45 64//45 81//45 87//45
f 64//46 62//46 67//46 81//46
f 59//47 61//47 87//47 66//47
f 16//48 17//48 96//48 97//48
f 18//49 16//49 97//49 113//49
f 10//50 18//50 113//50 111//50
f 65//51 69//51 81//51 92//51
f 17//52 65//52 92//52 96//52
f 69//53 10//53 111//53 81//53
f 11//54 12//54 106//54 107//54
f 9//55 73//55 111//55 112//55
f 12//56 9//56 112//56 106//56
f 68//57 11//57 107//57 87//57
f 74//58 68//58 87//58 81//58
f 73//59 74//59 81//59 111//59
f 14//60 15//60 101//60 102//60
f 15//61 13//61 108//61 101//61
f 13//62 77//62 107//62 108//62
f 80//63 60//63 93//63 87//63
f 77//64 80//64 87//64 107//64
f 60//65 14//65 102//65 93//65
f 20//66 19//66 103//66 98//66
f 19//67 83//67 102//67 103//67
f 70//68 20//68 98//68 96//68
f 86//69 75//69 92//69 93//69
f 75//70 70//70 96//70 92//70
f 83//71 86//71 93//71 102//71
f 114//72 115//72 95//72 94//72
f 116//73 117//73 97//73 96//73
f 117//74 114//74 94//74 97//74
f 115//75 118//75 98//75 95//75
f 118//76 116//76 96//76 98//76
f 129//77 130//77 100//77 99//77
f 131//78 132//78 102//78 101//78
f 130//79 131//79 101//79 100//79
f 133//80 129//80 99//80 103//80
f 132//81 133//81 103//81 102//81
f 124//82 125//82 105//82 104//82
f 126//83 127//83 107//83 106//83
f 125//84 126//84 106//84 105//84
f 127//85 128//85 108//85 107//85
f 128//86 124//86 104//86 108//86
f 120//87 119//87 109//87 110//87
f 121//88 122//88 112//88 111//88
f 122//89 120//89 110//89 112//89
f 119//90 123//90 113//90 109//90
f 123//91 121//91 111//91 113//91
f 6//92 7//92 115//92 114//92
f 91//93 71//93 117//93 116//93
f 71//94 6//94 114//94 117//94
f 7//95 89//95 118//95 115//95
f 89//96 91//96 116//96 118//96
f 2//97 5//97 119//97 120//97
f 78//98 79//98 122//98 121//98
f 79//99 2//99 120//99 122//99
f 5//100 72//100 123//100 119//100
f 72//101 78//101 121//101 123//101
f 4//102 1//102 125//102 124//102
f 76//103 85//103 127//103 126//103
f 1//104 76//104 126//104 125//104
f 85//105 84//105 128//105 127//105
f 84//106 4//106 124//106 128//106
f 8//107 3//107 130//107 129//107
f 82//108 90//108 132//108 131//108
f 3//109 82//109 131//109 130//109
f 88//110 8//110 129//110 133//110
f 90//111 88//111 133//111 132//111

