mtllib pawn.mtl
o Plane
v -0.950000 0.200000 -0.413808 -1:-1.0 -1:-1.0 -1:-1.0 -1:-1.0
v -0.413808 0.200000 -0.950000 -1:-1.0 -1:-1.0 -1:-1.0 -1:-1.0
v -0.413808 0.200000 0.950000 -1:-1.0 -1:-1.0 -1:-1.0 -1:-1.0
v -0.950000 0.200000 0.413808 -1:-1.0 -1:-1.0 -1:-1.0 -1:-1.0
v 0.413808 0.200000 -0.950000 -1:-1.0 -1:-1.0 -1:-1.0 -1:-1.0
v 0.950000 0.200000 -0.413808 -1:-1.0 -1:-1.0 -1:-1.0 -1:-1.0
v 0.950000 0.200000 0.413808 -1:-1.0 -1:-1.0 -1:-1.0 -1:-1.0
v 0.413808 0.200000 0.950000 -1:-1.0 -1:-1.0 -1:-1.0 -1:-1.0
v -0.413808 0.963038 -0.950000 -1:-1.0 -1:-1.0 -1:-1.0 -1:-1.0
v 0.000000 1.255180 -0.950000 -1:-1.0 -1:-1.0 -1:-1.0 -1:-1.0
v -0.950000 1.255180 -0.000000 -1:-1.0 -1:-1.0 -1:-1.0 -1:-1.0
v -0.950000 0.963038 -0.413808 -1:-1.0 -1:-1.0 -1:-1.0 -1:-1.0
v -0.950000 0.963038 0.413808 -1:-1.0 -1:-1.0 -1:-1.0 -1:-1.0
v -0.000000 1.255180 0.950000 -1:-1.0 -1:-1.0 -1:-1.0 -1:-1.0
v -0.413808 0.963038 0.950000 -1:-1.0 -1:-1.0 -1:-1.0 -1:-1.0
v 0.950000 0.963038 -0.413808 -1:-1.0 -1:-1.0 -1:-1.0 -1:-1.0
v 0.950000 1.255180 0.000000 -1:-1.0 -1:-1.0 -1:-1.0 -1:-1.0
v 0.413808 0.963038 -0.950000 -1:-1.0 -1:-1.0 -1:-1.0 -1:-1.0
v 0.413808 0.963038 0.950000 -1:-1.0 -1:-1.0 -1:-1.0 -1:-1.0
v 0.950000 0.963038 0.413808 -1:-1.0 -1:-1.0 -1:-1.0 -1:-1.0
v 0.787868 1.700000 0.070711 -1:-1.0 -1:-1.0 -1:-1.0 -1:-1.0
v 0.070711 1.700000 0.787868 -1:-1.0 -1:-1.0 -1:-1.0 -1:-1.0
v 0.070711 1.700000 -0.787868 -1:-1.0 -1:-1.0 -1:-1.0 -1:-1.0
v -0.787868 1.700000 -0.070711 -1:-1.0 -1:-1.0 -1:-1.0 -1:-1.0
v 0.787868 2.800000 0.070711 -1:-1.0 -1:-1.0 -1:-1.0 -1:-1.0
v 0.070711 2.800000 0.787868 -1:-1.0 -1:-1.0 -1:-1.0 -1:-1.0
v 0.070711 2.800000 -0.787868 -1:-1.0 -1:-1.0 -1:-1.0 -1:-1.0
v -0.787868 2.800000 -0.070711 -1:-1.0 -1:-1.0 -1:-1.0 -1:-1.0
v 0.787868 1.700000 -0.070711 -1:-1.0 -1:-1.0 -1:-1.0 -1:-1.0
v -0.070711 1.700000 0.787868 -1:-1.0 -1:-1.0 -1:-1.0 -1:-1.0
v 0.787868 2.800000 -0.070711 -1:-1.0 -1:-1.0 -1:-1.0 -1:-1.0
v -0.070711 2.800000 0.787868 -1:-1.0 -1:-1.0 -1:-1.0 -1:-1.0
v -0.070711 1.700000 -0.787868 -1:-1.0 -1:-1.0 -1:-1.0 -1:-1.0
v 1.000000 1.500000 0.000000 -1:-1.0 -1:-1.0 -1:-1.0 -1:-1.0
v -0.070711 2.800000 -0.787868 -1:-1.0 -1:-1.0 -1:-1.0 -1:-1.0
v 0.925484 3.108804 -0.038135 -1:-1.0 -1:-1.0 -1:-1.0 -1:-1.0
v -0.787868 1.700000 0.070711 -1:-1.0 -1:-1.0 -1:-1.0 -1:-1.0
v 0.000000 1.500000 -1.000000 -1:-1.0 -1:-1.0 -1:-1.0 -1:-1.0
v -0.787868 2.800000 0.070711 -1:-1.0 -1:-1.0 -1:-1.0 -1:-1.0
v -0.038135 3.108804 -0.925484 -1:-1.0 -1:-1.0 -1:-1.0 -1:-1.0
v -0.000000 1.500000 1.000000 -1:-1.0 -1:-1.0 -1:-1.0 -1:-1.0
v -1.000000 1.500000 -0.000000 -1:-1.0 -1:-1.0 -1:-1.0 -1:-1.0
v -0.038135 3.108804 0.925484 -1:-1.0 -1:-1.0 -1:-1.0 -1:-1.0
v -0.925484 3.108804 0.038135 -1:-1.0 -1:-1.0 -1:-1.0 -1:-1.0
v 0.982632 3.664138 -0.166099 -1:-1.0 -1:-1.0 -1:-1.0 -1:-1.0
v 0.982632 3.664138 0.166099 -1:-1.0 -1:-1.0 -1:-1.0 -1:-1.0
v 1.055526 3.498928 -0.038135 -1:-1.0 -1:-1.0 -1:-1.0 -1:-1.0
v 0.166099 3.664138 0.982632 -1:-1.0 -1:-1.0 -1:-1.0 -1:-1.0
v -0.166099 3.664138 0.982632 -1:-1.0 -1:-1.0 -1:-1.0 -1:-1.0
v -0.038135 3.498928 1.055526 -1:-1.0 -1:-1.0 -1:-1.0 -1:-1.0
v -0.166099 3.664138 -0.982632 -1:-1.0 -1:-1.0 -1:-1.0 -1:-1.0
v 0.166099 3.664138 -0.982632 -1:-1.0 -1:-1.0 -1:-1.0 -1:-1.0
v -0.038135 3.498928 -1.055526 -1:-1.0 -1:-1.0 -1:-1.0 -1:-1.0
v -0.982632 3.664138 0.166099 -1:-1.0 -1:-1.0 -1:-1.0 -1:-1.0
v -0.982632 3.664138 -0.166099 -1:-1.0 -1:-1.0 -1:-1.0 -1:-1.0
v -1.055526 3.498928 0.038135 -1:-1.0 -1:-1.0 -1:-1.0 -1:-1.0
v 0.753799 4.500000 -0.000005 -1:-1.0 -1:-1.0 -1:-1.0 -1:-1.0
v 0.738291 4.265341 0.223267 -1:-1.0 -1:-1.0 -1:-1.0 -1:-1.0
v 0.738291 4.265341 -0.223267 -1:-1.0 -1:-1.0 -1:-1.0 -1:-1.0
v 0.753799 4.500000 0.000006 -1:-1.0 -1:-1.0 -1:-1.0 -1:-1.0
v 0.000005 4.500000 0.753799 -1:-1.0 -1:-1.0 -1:-1.0 -1:-1.0
v -0.223267 4.265341 0.738291 -1:-1.0 -1:-1.0 -1:-1.0 -1:-1.0
v 0.223267 4.265341 0.738291 -1:-1.0 -1:-1.0 -1:-1.0 -1:-1.0
v -0.000006 4.500000 0.753799 -1:-1.0 -1:-1.0 -1:-1.0 -1:-1.0
v -0.000005 4.500000 -0.753799 -1:-1.0 -1:-1.0 -1:-1.0 -1:-1.0
v 0.223267 4.265341 -0.738291 -1:-1.0 -1:-1.0 -1:-1.0 -1:-1.0
v -0.223267 4.265341 -0.738291 -1:-1.0 -1:-1.0 -1:-1.0 -1:-1.0
v 0.000006 4.500000 -0.753799 -1:-1.0 -1:-1.0 -1:-1.0 -1:-1.0
v -0.753799 4.500000 0.000005 -1:-1.0 -1:-1.0 -1:-1.0 -1:-1.0
v -0.738291 4.265341 -0.223267 -1:-1.0 -1:-1.0 -1:-1.0 -1:-1.0
v -0.738291 4.265341 0.223267 -1:-1.0 -1:-1.0 -1:-1.0 -1:-1.0
v -0.753799 4.500000 -0.000006 -1:-1.0 -1:-1.0 -1:-1.0 -1:-1.0
v -1.000000 0.000000 0.613808 -1:-1.0 -1:-1.0 -1:-1.0 -1:-1.0
v -1.000000 0.000000 -0.613808 -1:-1.0 -1:-1.0 -1:-1.0 -1:-1.0
v -0.888394 1.101932 -0.575374 -1:-1.0 -1:-1.0 -1:-1.0 -1:-1.0
v -0.888394 1.393962 -0.161725 -1:-1.0 -1:-1.0 -1:-1.0 -1:-1.0
v -0.888394 1.101932 0.575374 -1:-1.0 -1:-1.0 -1:-1.0 -1:-1.0
v 0.613808 0.000000 1.000000 -1:-1.0 -1:-1.0 -1:-1.0 -1:-1.0
v -0.613808 0.000000 1.000000 -1:-1.0 -1:-1.0 -1:-1.0 -1:-1.0
v -0.575374 1.101932 0.888394 -1:-1.0 -1:-1.0 -1:-1.0 -1:-1.0
v 0.161725 1.393962 0.888394 -1:-1.0 -1:-1.0 -1:-1.0 -1:-1.0
v 0.575374 1.101932 0.888394 -1:-1.0 -1:-1.0 -1:-1.0 -1:-1.0
v 1.000000 0.000000 -0.613808 -1:-1.0 -1:-1.0 -1:-1.0 -1:-1.0
v 1.000000 0.000000 0.613808 -1:-1.0 -1:-1.0 -1:-1.0 -1:-1.0
v 0.888394 1.393962 -0.161725 -1:-1.0 -1:-1.0 -1:-1.0 -1:-1.0
v 0.888394 1.101932 -0.575374 -1:-1.0 -1:-1.0 -1:-1.0 -1:-1.0
v 0.888394 1.101932 0.575374 -1:-1.0 -1:-1.0 -1:-1.0 -1:-1.0
v 0.613808 0.000000 -1.000000 -1:-1.0 -1:-1.0 -1:-1.0 -1:-1.0
v -0.613808 0.000000 -1.000000 -1:-1.0 -1:-1.0 -1:-1.0 -1:-1.0
v -0.161725 1.393962 -0.888394 -1:-1.0 -1:-1.0 -1:-1.0 -1:-1.0
v -0.575374 1.101932 -0.888394 -1:-1.0 -1:-1.0 -1:-1.0 -1:-1.0
v 0.575374 1.101932 -0.888394 -1:-1.0 -1:-1.0 -1:-1.0 -1:-1.0
v 0.038135 3.108804 0.925484 -1:-1.0 -1:-1.0 -1:-1.0 -1:-1.0
v -0.925484 3.108804 -0.038135 -1:-1.0 -1:-1.0 -1:-1.0 -1:-1.0
v -0.223267 3.831792 0.918937 -1:-1.0 -1:-1.0 -1:-1.0 -1:-1.0
v 0.038135 3.498928 1.055526 -1:-1.0 -1:-1.0 -1:-1.0 -1:-1.0
v -1.055526 3.498928 -0.038135 -1:-1.0 -1:-1.0 -1:-1.0 -1:-1.0
v -0.918937 3.831792 0.223267 -1:-1.0 -1:-1.0 -1:-1.0 -1:-1.0
v -1.000000 3.000000 -0.000000 -1:-1.0 -1:-1.0 -1:-1.0 -1:-1.0
v 0.038135 3.108804 -0.925484 -1:-1.0 -1:-1.0 -1:-1.0 -1:-1.0
v 0.038135 3.498928 -1.055526 -1:-1.0 -1:-1.0 -1:-1.0 -1:-1.0
v -0.223267 3.831792 -0.918937 -1:-1.0 -1:-1.0 -1:-1.0 -1:-1.0
v -0.918937 3.831792 -0.223267 -1:-1.0 -1:-1.0 -1:-1.0 -1:-1.0
v -1.170943 3.512829 -0.000000 -1:-1.0 -1:-1.0 -1:-1.0 -1:-1.0
v 0.000000 3.000000 -1.000000 -1:-1.0 -1:-1.0 -1:-1.0 -1:-1.0
v 0.925484 3.108804 0.038135 -1:-1.0 -1:-1.0 -1:-1.0 -1:-1.0
v 1.055526 3.498928 0.038135 -1:-1.0 -1:-1.0 -1:-1.0 -1:-1.0
v 0.918937 3.831792 -0.223267 -1:-1.0 -1:-1.0 -1:-1.0 -1:-1.0
v 0.223267 3.831792 -0.918937 -1:-1.0 -1:-1.0 -1:-1.0 -1:-1.0
v 0.000000 3.512829 -1.170943 -1:-1.0 -1:-1.0 -1:-1.0 -1:-1.0
v 1.000000 3.000000 0.000000 -1:-1.0 -1:-1.0 -1:-1.0 -1:-1.0
v -0.000000 3.000000 1.000000 -1:-1.0 -1:-1.0 -1:-1.0 -1:-1.0
v 0.918937 3.831792 0.223267 -1:-1.0 -1:-1.0 -1:-1.0 -1:-1.0
v 1.170943 3.512829 0.000000 -1:-1.0 -1:-1.0 -1:-1.0 -1:-1.0
v -0.000000 3.512829 1.170943 -1:-1.0 -1:-1.0 -1:-1.0 -1:-1.0
v 0.223267 3.831792 0.918937 -1:-1.0 -1:-1.0 -1:-1.0 -1:-1.0
v 0.183701 3.750000 1.066299 -1:-1.0 -1:-1.0 -1:-1.0 -1:-1.0
v 1.066299 3.750000 0.183701 -1:-1.0 -1:-1.0 -1:-1.0 -1:-1.0
v 0.183701 4.375396 0.805717 -1:-1.0 -1:-1.0 -1:-1.0 -1:-1.0
v 0.805718 4.375396 0.183701 -1:-1.0 -1:-1.0 -1:-1.0 -1:-1.0
v -0.183701 3.750000 1.066299 -1:-1.0 -1:-1.0 -1:-1.0 -1:-1.0
v -1.066299 3.750000 0.183701 -1:-1.0 -1:-1.0 -1:-1.0 -1:-1.0
v -0.805717 4.375396 0.183701 -1:-1.0 -1:-1.0 -1:-1.0 -1:-1.0
v -0.183701 4.375396 0.805718 -1:-1.0 -1:-1.0 -1:-1.0 -1:-1.0
v -0.183701 3.750000 -1.066299 -1:-1.0 -1:-1.0 -1:-1.0 -1:-1.0
v -1.066299 3.750000 -0.183701 -1:-1.0 -1:-1.0 -1:-1.0 -1:-1.0
v -0.183701 4.375396 -0.805717 -1:-1.0 -1:-1.0 -1:-1.0 -1:-1.0
v -0.805718 4.375396 -0.183701 -1:-1.0 -1:-1.0 -1:-1.0 -1:-1.0
v 1.066299 3.750000 -0.183701 -1:-1.0 -1:-1.0 -1:-1.0 -1:-1.0
v 0.183701 3.750000 -1.066299 -1:-1.0 -1:-1.0 -1:-1.0 -1:-1.0
v 0.805717 4.375396 -0.183701 -1:-1.0 -1:-1.0 -1:-1.0 -1:-1.0
v 0.183701 4.375396 -0.805718 -1:-1.0 -1:-1.0 -1:-1.0 -1:-1.0
v -1.000000 1.066660 -0.613808 -1:-1.0 -1:-1.0 -1:-1.0 -1:-1.0
v -0.888394 1.393962 0.161725 -1:-1.0 -1:-1.0 -1:-1.0 -1:-1.0
v 0.161725 1.393962 -0.888394 -1:-1.0 -1:-1.0 -1:-1.0 -1:-1.0
v -0.613808 1.066660 -1.000000 -1:-1.0 -1:-1.0 -1:-1.0 -1:-1.0
v 0.888394 1.393962 0.161725 -1:-1.0 -1:-1.0 -1:-1.0 -1:-1.0
v 1.000000 1.066660 -0.613808 -1:-1.0 -1:-1.0 -1:-1.0 -1:-1.0
v 0.613808 1.066660 -1.000000 -1:-1.0 -1:-1.0 -1:-1.0 -1:-1.0
v 0.000000 1.500000 -1.000000 -1:-1.0 -1:-1.0 -1:-1.0 -1:-1.0
v 0.613808 1.066660 1.000000 -1:-1.0 -1:-1.0 -1:-1.0 -1:-1.0
v 1.000000 1.066660 0.613808 -1:-1.0 -1:-1.0 -1:-1.0 -1:-1.0
v 1.000000 1.500000 0.000000 -1:-1.0 -1:-1.0 -1:-1.0 -1:-1.0
v -0.161725 1.393962 0.888394 -1:-1.0 -1:-1.0 -1:-1.0 -1:-1.0
v -0.613808 1.066660 1.000000 -1:-1.0 -1:-1.0 -1:-1.0 -1:-1.0
v -0.000000 1.500000 1.000000 -1:-1.0 -1:-1.0 -1:-1.0 -1:-1.0
v -1.000000 1.066660 0.613808 -1:-1.0 -1:-1.0 -1:-1.0 -1:-1.0
v -1.000000 1.500000 -0.000000 -1:-1.0 -1:-1.0 -1:-1.0 -1:-1.0
vn -0.707107 0.000000 0.707107
vn 0.707107 0.000000 0.707107
vn 0.000000 -1.000000 0.000000
vn -1.000000 0.000000 0.000000
vn 0.707107 0.000000 -0.707107
vn 0.000000 0.000000 1.000000
vn 0.000000 0.000000 -1.000000
vn 1.000000 0.000000 0.000000
vn 0.499603 0.707667 0.499603
vn -0.499603 0.707667 0.499603
vn -0.499603 0.707667 -0.499603
vn 0.499603 0.707667 -0.499603
vn -0.707107 0.000000 -0.707107
vn 0.000000 0.000000 0.000000
vn -0.707107 0.000000 0.707107
vn 0.000000 0.384615 0.923077
vn 0.707107 0.000000 0.707107
vn -0.707107 0.000000 -0.707107
vn 0.707107 0.000000 -0.707107
vn -0.923077 0.384615 0.000000
vn 0.678280 0.282617 -0.678280
vn -0.688247 -0.229416 0.688247
vn -0.000000 0.384615 -0.923077
vn 0.688247 -0.229416 0.688247
vn -0.688247 -0.229416 -0.688247
vn 0.688247 -0.229416 -0.688247
vn 0.632456 0.447214 0.632456
vn 0.632456 -0.447214 0.632456
vn 0.948683 0.000000 0.316228
vn 0.316228 0.000000 0.948683
vn 0.632456 0.447214 -0.632456
vn 0.632456 -0.447214 -0.632456
vn 0.316228 0.000000 -0.948683
vn 0.948683 0.000000 -0.316228
vn -0.632456 0.447214 -0.632456
vn -0.632456 -0.447214 -0.632456
vn -0.316228 0.000000 -0.948683
vn -0.948683 0.000000 -0.316228
vn -0.632456 0.447214 0.632456
vn -0.632456 -0.447214 0.632456
vn -0.948683 0.000000 0.316228
vn -0.316228 0.000000 0.948683
vn 0.914904 0.403672 0.000000
vn -0.000000 0.403672 0.914904
vn 0.000000 0.403672 -0.914904
vn -0.914904 0.403672 0.000000
vn -0.678280 0.282617 0.678280
vn 0.678280 0.282617 0.678280
vn -0.678280 0.282617 -0.678280
vn 0.000000 1.000000 -0.000000
vn 0.423492 0.800818 0.423492
vn 0.423492 0.800818 -0.423492
vn -0.423492 0.800818 0.423492
vn -0.423492 0.800818 -0.423492
vn 0.923077 0.384615 0.000000
vn -0.970142 0.242536 0.000000
vn -0.970143 -0.198134 0.139880
vn -0.970143 0.000000 0.242536
vn -0.970143 -0.198134 -0.139880
vn -0.970143 0.000000 -0.242536
vn 0.000000 0.242536 0.970142
vn 0.139880 -0.198134 0.970143
vn 0.242536 0.000000 0.970143
vn -0.242536 0.000000 0.970143
vn -0.139880 -0.198134 0.970143
vn 0.970142 0.242536 0.000000
vn 0.970143 -0.198134 0.139880
vn 0.970143 0.000000 0.242536
vn 0.970143 0.000000 -0.242536
vn 0.970143 -0.198134 -0.139880
vn 0.000000 0.242536 -0.970142
vn 0.139880 -0.198134 -0.970143
vn 0.242536 0.000000 -0.970143
vn -0.242536 0.000000 -0.970143
vn -0.139880 -0.198134 -0.970143
vn -0.688135 0.230090 0.688135
vn -0.811556 -0.484531 0.326506
vn -0.326506 -0.484531 0.811556
vn -0.940030 -0.107863 0.323588
vn -0.323588 -0.107863 0.940030
vn -0.543040 -0.640481 0.543040
vn -0.688135 0.230090 -0.688135
vn -0.811556 -0.484531 -0.326507
vn -0.326506 -0.484531 -0.811556
vn -0.940030 -0.107863 -0.323589
vn -0.323588 -0.107863 -0.940030
vn -0.543040 -0.640481 -0.543040
vn 0.688135 0.230090 -0.688135
vn 0.326506 -0.484531 -0.811556
vn 0.811556 -0.484531 -0.326506
vn 0.323588 -0.107863 -0.940030
vn 0.543040 -0.640481 -0.543040
vn 0.940030 -0.107863 -0.323588
vn 0.688135 0.230090 0.688135
vn 0.326506 -0.484531 0.811556
vn 0.811556 -0.484531 0.326507
vn 0.543040 -0.640481 0.543040
vn 0.940030 -0.107863 0.323589
vn 0.323588 -0.107863 0.940030
vn 0.517300 0.681763 0.517300
vn 0.696043 -0.176202 0.696044
vn 0.326669 0.136112 0.935286
vn 0.935286 0.136112 0.326669
vn -0.517300 0.681763 0.517300
vn -0.696044 -0.176202 0.696043
vn -0.935286 0.136112 0.326669
vn -0.326669 0.136112 0.935286
vn -0.517300 0.681763 -0.517300
vn -0.696043 -0.176202 -0.696044
vn -0.935286 0.136112 -0.326669
vn -0.326669 0.136112 -0.935286
vn 0.517300 0.681763 -0.517300
vn 0.696044 -0.176202 -0.696043
vn 0.326669 0.136112 -0.935286
vn 0.935286 0.136112 -0.326669
vn -0.059458 0.815483 -0.575719
vn -0.670643 0.316980 -0.670643
vn -0.575719 0.815483 -0.059458
vn -0.223074 0.948934 -0.223074
vn 0.059458 0.815483 -0.575719
vn 0.223074 0.948934 -0.223074
vn 0.670643 0.316980 -0.670643
vn 0.575719 0.815483 -0.059458
vn 0.223074 0.948934 0.223074
vn 0.670643 0.316981 0.670643
vn 0.575719 0.815483 0.059458
vn 0.059458 0.815483 0.575719
vn -0.575719 0.815483 0.059458
vn -0.223074 0.948934 0.223074
vn -0.059458 0.815483 0.575719
vn -0.670643 0.316980 0.670643
f 147//1 73//1 79//1 145//1
f 84//2 142//2 141//2 78//2
f 74//3 89//3 88//3 83//3 84//3 78//3 79//3 73//3
f 1//4 4//4 13//4 11//4 12//4
f 138//5 83//5 88//5 139//5
f 3//6 8//6 19//6 14//6 15//6
f 5//7 2//7 9//7 10//7 18//7
f 7//8 6//8 16//8 17//8 20//8
f 137//9 81//9 82//9 87//9
f 144//10 134//10 77//10 80//10
f 76//11 90//11 91//11 75//11
f 135//12 85//12 86//12 92//12
f 74//13 133//13 136//13 89//13
f 143//14 140//14 38//14 34//14
f 140//14 148//14 42//14 38//14
f 148//14 146//14 41//14 42//14
f 146//14 143//14 34//14 41//14
f 37//15 30//15 32//15 39//15
f 117//16 119//16 64//16 61//16 124//16 121//16
f 22//17 21//17 25//17 26//17
f 33//18 24//18 28//18 35//18
f 29//19 23//19 27//19 31//19
f 69//20 128//20 126//20 122//20 123//20 72//20
f 108//21 109//21 66//21 59//21
f 44//22 43//22 50//22 49//22 54//22 56//22
f 65//23 132//23 130//23 125//23 127//23 68//23
f 93//24 106//24 107//24 46//24 48//24 96//24
f 40//25 94//25 97//25 55//25 51//25 53//25
f 36//26 100//26 101//26 52//26 45//26 47//26
f 21//27 22//27 41//27 34//27
f 26//28 25//28 111//28 112//28
f 22//29 26//29 112//29 41//29
f 25//30 21//30 34//30 111//30
f 23//31 29//31 34//31 38//31
f 31//32 27//32 105//32 111//32
f 29//33 31//33 111//33 34//33
f 27//34 23//34 38//34 105//34
f 24//35 33//35 38//35 42//35
f 35//36 28//36 99//36 105//36
f 28//37 24//37 42//37 99//37
f 33//38 35//38 105//38 38//38
f 30//39 37//39 42//39 41//39
f 39//40 32//40 112//40 99//40
f 32//41 30//41 41//41 112//41
f 37//42 39//42 99//42 42//42
f 129//43 118//43 114//43
f 117//44 121//44 115//44
f 125//45 130//45 110//45
f 122//46 126//46 104//46
f 98//47 95//47 62//47 71//47
f 116//48 113//48 58//48 63//48
f 102//49 103//49 70//49 67//49
f 65//50 68//50 69//50 72//50 61//50 64//50 57//50 60//50
f 57//51 64//51 119//51 120//51
f 65//52 60//52 131//52 132//52
f 61//53 72//53 123//53 124//53
f 69//54 68//54 127//54 128//54
f 129//55 131//55 60//55 57//55 120//55 118//55
f 4//56 1//56 74//56 73//56
f 12//57 11//57 148//57 133//57
f 1//58 12//58 133//58 74//58
f 11//59 13//59 147//59 148//59
f 13//60 4//60 73//60 147//60
f 8//61 3//61 79//61 78//61
f 15//62 14//62 146//62 145//62
f 3//63 15//63 145//63 79//63
f 19//64 8//64 78//64 141//64
f 14//65 19//65 141//65 146//65
f 6//66 7//66 84//66 83//66
f 17//67 16//67 138//67 143//67
f 16//68 6//68 83//68 138//68
f 7//69 20//69 142//69 84//69
f 20//70 17//70 143//70 142//70
f 2//71 5//71 88//71 89//71
f 10//72 9//72 136//72 140//72
f 9//73 2//73 89//73 136//73
f 5//74 18//74 139//74 88//74
f 18//75 10//75 140//75 139//75
f 43//76 44//76 99//76 112//76
f 49//77 50//77 115//77 121//77
f 56//78 54//78 122//78 104//78
f 50//79 43//79 112//79 115//79
f 44//80 56//80 104//80 99//80
f 54//81 49//81 121//81 122//81
f 94//82 40//82 105//82 99//82
f 53//83 51//83 125//83 110//83
f 55//84 97//84 104//84 126//84
f 40//85 53//85 110//85 105//85
f 97//86 94//86 99//86 104//86
f 51//87 55//87 126//87 125//87
f 100//88 36//88 111//88 105//88
f 47//89 45//89 129//89 114//89
f 52//90 101//90 110//90 130//90
f 36//91 47//91 114//91 111//91
f 45//92 52//92 130//92 129//92
f 101//93 100//93 105//93 110//93
f 106//94 93//94 112//94 111//94
f 46//95 107//95 114//95 118//95
f 96//96 48//96 117//96 115//96
f 48//97 46//97 118//97 117//97
f 93//98 96//98 115//98 112//98
f 107//99 106//99 111//99 114//99
f 113//100 116//100 117//100 118//100
f 63//101 58//101 120//101 119//101
f 58//102 113//102 118//102 120//102
f 116//103 63//103 119//103 117//103
f 95//104 98//104 122//104 121//104
f 71//105 62//105 124//105 123//105
f 62//106 95//106 121//106 124//106
f 98//107 71//107 123//107 122//107
f 103//108 102//108 125//108 126//108
f 67//109 70//109 128//109 127//109
f 102//110 67//110 127//110 125//110
f 70//111 103//111 126//111 128//111
f 109//112 108//112 129//112 130//112
f 59//113 66//113 132//113 131//113
f 108//114 59//114 131//114 129//114
f 66//115 109//115 130//115 132//115
f 76//116 75//116 133//116 148//116
f 90//117 76//117 148//117 140//117
f 91//118 90//118 140//118 136//118
f 75//119 91//119 136//119 133//119
f 86//120 85//120 143//120 138//120
f 92//121 86//121 138//121 139//121
f 85//122 135//122 140//122 143//122
f 135//123 92//123 139//123 140//123
f 87//124 82//124 141//124 142//124
f 81//125 137//125 143//125 146//125
f 82//126 81//126 146//126 141//126
f 137//127 87//127 142//127 143//127
f 144//128 80//128 145//128 146//128
f 80//129 77//129 147//129 145//129
f 77//130 134//130 148//130 147//130
f 134//131 144//131 146//131 148//131

